<?xml version="1.0" encoding="utf-8"?>
<!-- Generator: Adobe Illustrator 19.0.0, SVG Export Plug-In . SVG Version: 6.00 Build 0)  -->
<svg version="1.1" id="Layer_1" xmlns="http://www.w3.org/2000/svg" xmlns:xlink="http://www.w3.org/1999/xlink" x="0px" y="0px"
	 viewBox="-69 71 160 160" style="enable-background:new -69 71 160 160;" xml:space="preserve">
<style type="text/css">
	.st0{fill:#FFFFFF;stroke:#4F4F4F;stroke-width:6;stroke-linecap:round;stroke-miterlimit:10;}
	.st1{fill:#F4F4F4;}
	.st2{fill:#E84242;}
	.st3{fill:none;stroke:#4F4F4F;stroke-width:6;stroke-linecap:round;stroke-miterlimit:10;}
	.st4{fill:none;stroke:#E84242;stroke-width:2;stroke-linecap:round;stroke-miterlimit:10;}
</style>
<g>
	<g>
		<circle class="st0" cx="11.1" cy="151" r="42.3"/>
		<path class="st1" d="M-31.2,152.5c0-24.2,19.6-43.8,43.8-43.8c11.6,0,22.2,4.5,30,11.9c-8-8.5-19.3-13.8-31.9-13.8
			c-24.2,0-43.8,19.6-43.8,43.8c0,12.6,5.3,23.9,13.8,31.9C-26.6,174.7-31.2,164.1-31.2,152.5z"/>
	</g>
	<g>
		<path class="st2" d="M29.6,160.6v1.8c0,2.2-0.2,3.7-0.6,4.5c-0.7,1.4-2,2.1-3.9,2.1c-2.6,0-4.2-1-5.1-2.9c-0.7-1.5-1-4.5-1-8.8
			v-1.2c0-0.4,0-0.8,0.1-1.2c0-2-0.5-3.3-1.4-3.9c-0.9-0.7-2.2-1-4-1H7.3v14.8c0,1.1,0.1,1.8,0.2,2.1c0.1,0.3,0.4,0.5,0.8,0.7
			c0.4,0.2,1.3,0.3,2.6,0.3c1.3,0,2.7,0.1,4.1,0.1v0.5H-7.5V168c3.9,0,6.2-0.1,7-0.4c0.4-0.1,0.6-0.4,0.8-0.6c0.1-0.3,0.2-1,0.2-2
			v-28.5c0-1-0.1-1.7-0.2-1.9c-0.1-0.1-0.3-0.3-0.7-0.4c-1.1-0.4-3.4-0.6-7-0.6v-0.5h22.6c4,0,7.1,1.1,9.5,3.2
			c1.9,1.7,2.8,3.4,2.8,5.3c0,2.1-0.7,3.9-2.2,5.3c-1.8,1.7-4.6,2.7-8.4,3.2c3.9,0.8,6.5,3,7.8,6.6c0.6,1.8,1,4.5,1,8.2
			c0,1.1,0.1,1.8,0.3,2.3c0.2,0.5,0.6,0.7,1.3,0.7c0.8,0,1.3-0.6,1.6-1.8c0.3-1.2,0.4-2.9,0.4-5.1H29.6z M7.3,149.5h5.1
			c2.7,0,4.7-0.5,5.9-1.5c1.5-1.2,2.3-3.2,2.3-6c0-3.1-0.6-5.3-1.9-6.6c-1.3-1.3-3.4-1.9-6.3-1.9H9.8c-0.8,0-1.3,0.1-1.7,0.2
			c-0.4,0.1-0.6,0.3-0.7,0.7s-0.1,1.1-0.1,2.1V149.5z"/>
	</g>
	<path class="st1" d="M32.8,123c4.4,5.9,6.9,13.2,6.9,21.1c0,19.7-15.9,35.6-35.6,35.6c-7.9,0-15.2-2.6-21.1-6.9
		c6.5,8.8,16.9,14.5,28.7,14.5c19.7,0,35.6-15.9,35.6-35.6C47.3,139.9,41.6,129.5,32.8,123z"/>
	<circle class="st3" cx="58.7" cy="151" r="5.4"/>
	<path class="st4" d="M58.8,108.7C46.6,95,28.6,86.6,8.7,87.3c-32.9,1.2-59.8,27.8-61.3,60.7c-1.7,36.6,27.5,66.8,63.7,66.8
		c33.6,0,61.2-26,63.6-59c0.2-2.5-1.8-4.7-4.4-4.7h-9.1"/>
</g>
</svg>
